HIERARCHY
ROOT SpineBase
{
  OFFSET 0.000000 0.000000 0.000000
  CHANNELS 6 Xposition Yposition Zposition Zrotation Xrotation Yrotation
  JOINT SpineMid
  {
    OFFSET 0.000000 33.116185 0.000000
    CHANNELS 3 Zrotation Xrotation Yrotation
    JOINT SpineShoulder
    {
      OFFSET 0.031917 24.527188 -0.816115
      CHANNELS 3 Zrotation Xrotation Yrotation
      JOINT Neck
      {
        OFFSET 0.030315 8.094392 -0.617509
        CHANNELS 3 Zrotation Xrotation Yrotation
        JOINT Head
        {
          OFFSET 1.933436 15.017046 -0.620471
          CHANNELS 3 Zrotation Xrotation Yrotation
          End Site
          {
            OFFSET 0 0 0
          }
        }
      }
      JOINT ShoulderLeft
      {
        OFFSET -16.859537 -0.977403 -1.073106
        CHANNELS 3 Zrotation Xrotation Yrotation
        JOINT ElbowLeft
        {
          OFFSET -5.408727 -21.596803 -1.928012
          CHANNELS 3 Zrotation Xrotation Yrotation
          JOINT WristLeft
          {
            OFFSET 12.795609 -12.056045 -12.584737
            CHANNELS 3 Zrotation Xrotation Yrotation
            JOINT HandLeft
            {
              OFFSET 5.051091 -3.485196 -1.338240
              CHANNELS 3 Zrotation Xrotation Yrotation
              JOINT HandTipLeft
              {
                OFFSET 7.275192 -4.038763 -9.264648
                CHANNELS 3 Zrotation Xrotation Yrotation
                End Site
                {
                  OFFSET 0 0 0
                }
              }
              JOINT ThumbLeft
              {
                OFFSET 0.747061 0.991265 -3.307033
                CHANNELS 3 Zrotation Xrotation Yrotation
                End Site
                {
                  OFFSET 0 0 0
                }
              }
            }
          }
        }
      }
      JOINT ShoulderRight
      {
        OFFSET 16.384601 -2.678537 4.895274
        CHANNELS 3 Zrotation Xrotation Yrotation
        JOINT ElbowRight
        {
          OFFSET 3.256916 -21.528453 2.398769
          CHANNELS 3 Zrotation Xrotation Yrotation
          JOINT WristRight
          {
            OFFSET -10.244142 -14.662581 -21.146610
            CHANNELS 3 Zrotation Xrotation Yrotation
            JOINT HandRight
            {
              OFFSET -3.834475 -3.009234 -6.021403
              CHANNELS 3 Zrotation Xrotation Yrotation
              JOINT HandTipRight
              {
                OFFSET -2.852928 -0.323418 -6.107188
                CHANNELS 3 Zrotation Xrotation Yrotation
                End Site
                {
                  OFFSET 0 0 0
                }
              }
              JOINT ThumbRight
              {
                OFFSET -2.681845 1.003407 -6.588384
                CHANNELS 3 Zrotation Xrotation Yrotation
                End Site
                {
                  OFFSET 0 0 0
                }
              }
            }
          }
        }
      }
    }
  }
  JOINT HipLeft
  {
    OFFSET -7.682708 1.092231 -5.311092
    CHANNELS 3 Zrotation Xrotation Yrotation
    JOINT KneeLeft
    {
      OFFSET -4.965492 -36.808774 -0.914628
      CHANNELS 3 Zrotation Xrotation Yrotation
      JOINT AnkleLeft
      {
        OFFSET -6.723427 -34.229025 7.230671
        CHANNELS 3 Zrotation Xrotation Yrotation
        JOINT FootLeft
        {
          OFFSET 2.239523 -1.722239 -12.688785
          CHANNELS 3 Zrotation Xrotation Yrotation
          End Site
          {
            OFFSET 0 0 0
          }
        }
      }
    }
  }
  JOINT HipRight
  {
    OFFSET 8.384011 0.113452 -2.210771
    CHANNELS 3 Zrotation Xrotation Yrotation
    JOINT KneeRight
    {
      OFFSET 0.795477 -36.310048 -0.218955
      CHANNELS 3 Zrotation Xrotation Yrotation
      JOINT AnkleRight
      {
        OFFSET -3.265252 -34.301668 11.803599
        CHANNELS 3 Zrotation Xrotation Yrotation
        JOINT FootRight
        {
          OFFSET 1.656144 -1.580294 -12.352628
          CHANNELS 3 Zrotation Xrotation Yrotation
          End Site
          {
            OFFSET 0 0 0
          }
        }
      }
    }
  }
}
MOTION
Frames: 8
Frame Time: 0.033333
-33.890073 78.867113 370.276026 -0.000000 0.000000 -10.921862 0.000000 0.000000 10.921862 -0.000000 0.000000 0.000000 -0.000000 0.000000 0.000000 0.000000 0.000000 0.000000 -0.000000 0.000000 0.000000 -0.000000 0.000000 0.000000 -0.000000 0.000000 0.000000 -0.000000 0.000000 0.000000 0.000000 0.000000 0.000000 0.000000 0.000000 0.000000 -0.000000 0.000000 0.000000 -0.000000 0.000000 0.000000 -0.000000 0.000000 0.000000 -0.000000 0.000000 0.000000 0.000000 0.000000 0.000000 0.000000 0.000000 0.000000 0.000000 0.000000 10.921862 -0.000000 0.000000 0.000000 -0.000000 0.000000 0.000000 0.000000 0.000000 0.000000 0.000000 0.000000 10.921862 -0.000000 0.000000 0.000000 -0.000000 0.000000 0.000000 0.000000 0.000000 0.000000
-33.881913 78.863608 370.282116 0.018376 -0.003349 -10.971815 -0.018677 -0.000210 10.971816 -0.000000 0.000000 0.000000 -0.000000 0.000000 0.000000 0.000000 0.000000 0.000000 -0.000000 0.000000 0.000000 -0.000000 0.000000 0.000000 -1.130929 -2.432528 -3.186488 1.467080 3.460545 3.599070 0.000000 0.000000 0.000000 0.000000 0.000000 0.000000 -0.000000 0.000000 0.000000 -0.000000 0.000000 0.000000 -0.074446 -1.896760 2.650000 0.101525 2.637757 -6.861463 0.000000 0.000000 0.000000 0.000000 0.000000 0.000000 -0.018677 -0.000210 10.971816 -0.000000 0.000000 0.000000 -1.103018 -5.637998 1.176879 0.000000 0.000000 0.000000 -0.018677 -0.000210 10.971816 -0.000000 0.000000 0.000000 -1.510176 -11.148421 -0.280720 0.000000 0.000000 0.000000
-33.877443 78.859075 370.289904 0.034416 -0.009024 -11.022155 -0.035506 0.002277 11.022158 -0.000000 0.000000 0.000000 -0.000000 0.000000 0.000000 0.000000 0.000000 0.000000 -0.000000 0.000000 0.000000 -0.000000 0.000000 0.000000 -1.678868 -4.055771 -5.482142 2.063310 5.861890 6.011900 0.000000 0.000000 0.000000 0.000000 0.000000 0.000000 -0.000000 0.000000 0.000000 -0.000000 0.000000 0.000000 -0.030189 -3.402363 4.669714 0.256218 4.660090 -11.407549 0.000000 0.000000 0.000000 0.000000 0.000000 0.000000 -0.035506 0.002277 11.022158 -0.000000 0.000000 0.000000 -2.211721 -11.940358 2.360844 0.000000 0.000000 0.000000 -0.035506 0.002277 11.022158 -0.000000 0.000000 0.000000 -3.331209 -23.289029 -0.952782 0.000000 0.000000 0.000000
-33.876661 78.853515 370.299390 0.048121 -0.017023 -11.072919 -0.050494 0.007464 11.072930 -0.000000 0.000000 0.000000 -0.000000 0.000000 0.000000 0.000000 0.000000 0.000000 -0.000000 0.000000 0.000000 -0.723013 -0.705520 0.001488 -0.869360 -4.264383 -6.901774 1.985444 7.229998 7.381309 0.000000 0.000000 0.000000 0.000000 0.000000 0.000000 -0.000000 0.000000 0.000000 -0.000000 0.000000 0.000000 0.085586 -4.428728 5.938317 0.327608 6.050630 -13.918464 0.000000 0.000000 0.000000 0.000000 0.000000 0.000000 -0.050494 0.007464 11.072930 -0.000000 0.000000 0.000000 -3.274851 -18.642332 3.492734 0.000000 0.000000 0.000000 -0.050494 0.007464 11.072930 -0.000000 0.000000 0.000000 -5.433977 -34.832907 -2.083433 0.000000 0.000000 0.000000
-33.879569 78.846929 370.310573 0.059491 -0.027346 -11.124148 -0.063649 0.015355 11.124170 -0.000000 0.000000 0.000000 -0.000000 0.000000 0.000000 0.000000 0.000000 0.000000 -0.000000 0.000000 0.000000 -0.901414 -0.940408 -0.065664 0.061210 -4.292273 -7.439742 1.340155 7.596481 7.774272 0.000000 0.000000 0.000000 0.000000 0.000000 0.000000 -0.000000 0.000000 0.000000 -0.000000 0.000000 0.000000 0.233358 -4.921440 6.376911 0.227810 6.797918 -14.505590 0.000000 0.000000 0.000000 0.000000 0.000000 0.000000 -0.063649 0.015355 11.124170 -0.000000 0.000000 0.000000 -4.240512 -25.322674 4.507280 0.000000 0.000000 0.000000 -0.063649 0.015355 11.124170 -0.000000 0.000000 0.000000 -7.683523 -44.336993 -3.582792 0.000000 0.000000 0.000000
-33.886165 78.839315 370.323453 0.068526 -0.039993 -11.175877 -0.074978 0.025952 11.175918 -0.000000 0.000000 0.000000 -0.000000 0.000000 0.000000 0.000000 0.000000 0.000000 -0.000000 0.000000 0.000000 -1.040264 -1.164944 -0.164442 1.632350 -3.682603 -7.158684 0.160203 6.975593 7.190359 0.000000 0.000000 0.000000 0.000000 0.000000 0.000000 -0.000000 0.000000 0.000000 -0.000000 0.000000 0.000000 0.392122 -4.858780 5.953439 -0.085747 6.893863 -13.180001 0.000000 0.000000 0.000000 0.000000 0.000000 0.000000 -0.074978 0.025952 11.175918 -0.000000 0.000000 0.000000 -5.068293 -31.484835 5.345173 0.000000 0.000000 0.000000 -0.074978 0.025952 11.175918 -0.000000 0.000000 0.000000 -9.801653 -51.147302 -5.165494 0.000000 0.000000 0.000000
-33.898146 78.829621 370.339861 0.073010 -0.058930 -11.203521 -0.083068 0.043621 11.203591 -0.000000 0.000000 0.000000 -0.000000 0.000000 0.000000 0.000000 0.000000 0.000000 -0.000000 0.000000 0.000000 -1.122814 -1.466898 -0.408968 4.748199 -2.441012 -6.457667 -2.479406 5.422726 5.939999 0.000000 0.000000 0.000000 0.000000 0.000000 0.000000 -0.000000 0.000000 0.000000 -0.000000 0.000000 0.000000 0.764801 -4.125655 4.083993 -0.903697 5.902948 -7.451788 0.000000 0.000000 0.000000 0.000000 0.000000 0.000000 -0.083068 0.043621 11.203591 -0.000000 0.000000 0.000000 -6.517673 -43.161370 6.756181 0.000000 0.000000 0.000000 -0.083068 0.043621 11.203591 -0.000000 0.000000 0.000000 -11.709916 -55.935505 -6.697566 0.000000 0.000000 0.000000
-33.913210 78.817822 370.361772 0.078640 -0.083419 -11.232712 -0.093384 0.066502 11.232823 -0.000000 0.000000 0.000000 -0.000000 0.000000 0.000000 0.000000 0.000000 0.000000 -0.000000 0.000000 0.000000 -1.219617 -1.647671 -0.506578 7.830693 0.146861 -4.083890 -5.101343 1.953876 2.132607 0.000000 0.000000 0.000000 0.000000 0.000000 0.000000 -0.000000 0.000000 0.000000 -0.334129 -0.473473 0.814486 1.412165 -3.118191 1.701327 -1.279602 4.549316 -3.674121 0.000000 0.000000 0.000000 0.000000 0.000000 0.000000 -0.093384 0.066502 11.232823 -0.000000 0.000000 0.000000 -6.522097 -42.735340 6.509088 0.000000 0.000000 0.000000 -0.093384 0.066502 11.232823 -0.000000 0.000000 0.000000 -13.707678 -60.304735 -8.140776 0.000000 0.000000 0.000000
